<svg width="560" height="560" xmlns="http://www.w3.org/2000/svg">

 <g>
  <title>background</title>
  <rect height="562" width="562" y="-1" x="-1" fill="none" id="canvas_background"/>
 </g>
 <g>
  <title>Layer 1</title>
  <g id="svg_1">
   <g id="svg_2">
    <path d="m388.639008,287.266998c-0.882996,-3.015991 -3.149994,-5.479004 -6.162994,-6.580994c-0.608002,-0.222015 -5.537018,-1.966003 -13.193024,-3.085999c32.708008,-34.803009 21.908997,-75.464005 19.356018,-83.404999c-0.882996,-3.017014 -3.149994,-5.480011 -6.162994,-6.582001c-1.404022,-0.514008 -25.88501,-9.146011 -53.777008,0.560989c1.574982,-6.460999 2.496002,-13.563995 2.496002,-21.358002c0,-49.866997 -37.763,-71.784996 -45.341003,-75.675995c-2.757019,-1.510002 -6.104004,-1.648003 -9.011993,-0.295998c-1.875,0.870995 -45.929016,21.953995 -45.929016,75.971992c0,7.810013 0.925003,14.928009 2.506012,21.399002c-27.94101,-9.772003 -52.488007,-1.116989 -53.894012,-0.60199c-3.013,1.10199 -5.279999,3.564987 -6.162994,6.582001c-2.552994,7.940994 -13.352005,48.60199 19.356003,83.404999c-7.656006,1.119995 -12.585007,2.863983 -13.193008,3.085999c-3.013,1.10199 -5.280991,3.56601 -6.164001,6.582001c-2.605988,8.106995 -13.811996,50.311005 21.450012,85.572998c20.405991,20.406006 43.054001,25.273987 60.021988,25.273987c6.281998,0 11.772995,-0.668976 16.095993,-1.462982l0,65.432983c0,5.522003 4.47702,10 10,10c5.52301,0 10,-4.477997 10,-10l0,-65.457977c4.343018,0.803986 9.888,1.487 16.238007,1.487c16.96701,0 39.618011,-4.870026 60.022003,-25.274017c35.261993,-35.263 24.056,-77.466003 21.450012,-85.572998zm-117.710022,78.212006c-0.221985,4.539001 -0.858978,8.354004 -1.467987,11.096985c-10.688995,2.375 -37.432999,5.197021 -60.507004,-17.877991c-22.72699,-22.725006 -20.345001,-49.026001 -17.828995,-60.501984c6.720993,-1.461029 19.835999,-3.08902 34.356003,1.622986c0.955994,0.358002 1.908997,0.696014 2.856995,1.010986c7.690002,2.916016 15.673996,7.676025 23.240997,15.242004c14.418991,14.419006 18.724991,30.269012 19.349991,42.735016l0,6.671997zm0,-93.071014c-0.221985,4.539001 -0.858978,8.354004 -1.467987,11.096008c-6.622986,1.472992 -19.408997,3.108002 -33.666,-1.34201c-1.444992,-0.556976 -2.882004,-1.063995 -4.309006,-1.52298c-7.457993,-2.946014 -15.181,-7.662018 -22.53299,-15.013c-22.725998,-22.726013 -20.344009,-49.026001 -17.828003,-60.501007c10.679001,-2.322006 37.498001,-5.080002 60.453995,17.876007c0.146011,0.145996 0.278,0.292999 0.421005,0.437988c0.876999,0.984009 1.757004,1.925003 2.636002,2.82901c11.969009,13.511002 15.715012,27.936996 16.292984,39.467987l0,6.671997zm10.141022,-50.173996c-3.134003,-2.009995 -7.649994,-5.322998 -12.237,-10.112c-0.468018,-0.513 -0.94101,-1.026001 -1.427002,-1.536987c-8.355011,-9.281006 -16.494003,-23.518005 -16.494003,-43.769012c0,-32.597 20.860001,-49.509995 30.090988,-55.397995c9.886017,6.326004 30.19101,23.238998 30.19101,55.397995c0,19.110001 -7.17099,32.822006 -14.963013,42.090012c-1.619995,1.621994 -3.135986,3.259995 -4.565002,4.905991c-3.997986,3.887009 -7.826996,6.658005 -10.595978,8.421997zm9.92099,46.932999c-0.014008,-11.73999 3.02301,-27.275986 15.457001,-41.865997c1.472992,-1.463989 2.95401,-3.039001 4.421997,-4.731995c22.946991,-22.570999 49.378998,-19.813995 60.001007,-17.464005c2.516998,11.465012 4.915009,37.781998 -17.825012,60.521011c-7.337982,7.338989 -15.04599,12.050995 -22.490997,14.998993c-1.450989,0.466003 -2.911987,0.980988 -4.381989,1.548004c-14.255005,4.442993 -27.03299,2.802002 -33.630005,1.333984c-0.73999,-3.332977 -1.523987,-8.227997 -1.553009,-14.084991c0,-0.084991 0.001007,-0.169983 0.001007,-0.255005zm62.054993,89.531006c-23.078003,23.07901 -49.822998,20.252014 -60.487,17.886017c-2.324982,-10.638 -5.135986,-37.514008 17.862,-60.512024c7.358002,-7.358002 15.087006,-12.074982 22.550995,-15.020996c1.424011,-0.458008 2.857025,-0.962006 4.298004,-1.518005c14.226013,-4.440002 26.983002,-2.819977 33.601013,-1.356995c2.516998,11.466003 4.915009,37.78302 -17.825012,60.522003z" stroke-width="34" fill="#ffffff" id="svg_3"/>
   </g>
  </g>
  <g id="svg_4">
   <g id="svg_5">
    <path d="m334.355988,30.570999c-17.431,-3.695999 -35.382996,-5.570999 -53.355988,-5.570999c-68.380005,0 -132.667007,26.627998 -181.018997,74.981003c-48.352001,48.35199 -74.981003,112.638992 -74.981003,181.018997c0,56.977997 19.169998,112.596985 54.096001,157.381012c-3.929001,6.078003 -6.043999,13.15799 -6.043999,20.567993c0,10.149994 3.952995,19.691986 11.129997,26.869995c7.177002,7.177002 16.720001,11.130005 26.870003,11.130005s19.692993,-3.953003 26.869995,-11.130005c7.178009,-7.178009 11.130005,-16.720001 11.130005,-26.869995c0,-10.149994 -3.953003,-19.692017 -11.130005,-26.869995s-16.719994,-11.131012 -26.869995,-11.131012c-6.015999,0 -11.815002,1.398987 -17.038002,4.024994c-31.652,-41.087982 -49.014,-91.911987 -49.014,-143.972992c0,-130.130997 105.869003,-236 236,-236c16.582001,0 33.136993,1.728001 49.207001,5.136002c5.406006,1.144997 10.710999,-2.306 11.856995,-7.708c1.145996,-5.403 -2.304993,-10.711002 -7.708008,-11.857002zm-236.03199,415.649002c3.509003,-3.51001 8.118004,-5.264008 12.728004,-5.264008s9.219002,1.755005 12.727997,5.264008c3.400002,3.398987 5.272003,7.920013 5.272003,12.727997s-1.872002,9.328003 -5.272003,12.727997c-7.017998,7.02002 -18.437996,7.018005 -25.456001,0c-3.399994,-3.398987 -5.271996,-7.919983 -5.271996,-12.727997s1.872002,-9.328003 5.271996,-12.727997z" stroke-width="34" fill="#ffffff" id="svg_6"/>
   </g>
  </g>
  <g id="svg_7">
   <g id="svg_8">
    <path d="m482.903992,123.619003c3.929016,-6.078003 6.044006,-13.158005 6.044006,-20.568001c0,-10.150002 -3.953003,-19.693001 -11.130005,-26.870003c-7.177002,-7.178001 -16.720001,-11.129997 -26.869995,-11.129997c-10.149994,0 -19.692993,3.952995 -26.869995,11.129997s-11.130005,16.720001 -11.130005,26.870003c0,10.149994 3.953003,19.693001 11.130005,26.870003c7.177002,7.177994 16.720001,11.12999 26.869995,11.12999c6.016998,0 11.815002,-1.399002 17.039001,-4.024994c31.651001,41.089005 49.013,91.912994 49.013,143.973999c0,130.131012 -105.868988,236 -236,236c-13.998993,0 -28.024994,-1.234009 -41.688004,-3.669006c-5.43399,-0.96698 -10.630997,2.651978 -11.598999,8.091003c-0.968994,5.437012 2.653,10.630005 8.089996,11.598999c14.819,2.640015 30.025009,3.979004 45.197006,3.979004c68.380005,0 132.666992,-26.628998 181.019989,-74.980011s74.980011,-112.639984 74.980011,-181.019989c0,-56.977997 -19.169983,-112.597 -54.096008,-157.380997zm-19.22699,-7.840004c-3.398987,3.400002 -7.920013,5.272003 -12.727997,5.272003s-9.32901,-1.871002 -12.727997,-5.272003c-7.019012,-7.017998 -7.019012,-18.436996 0,-25.456001c3.398987,-3.400002 7.919983,-5.271996 12.727997,-5.271996s9.328003,1.871994 12.727997,5.271996c3.399994,3.399002 5.272003,7.919998 5.272003,12.728004c0,4.807999 -1.872009,9.327995 -5.272003,12.727997z" stroke-width="34" fill="#ffffff" id="svg_9"/>
   </g>
  </g>
  <g id="svg_10">
   <g id="svg_11">
    <path d="m193.134003,500.10199l-3.776001,9.26001l3.748001,-9.270996c-5.123001,-2.067993 -10.949005,0.402985 -13.018997,5.52301c-2.070007,5.119995 0.403,10.948975 5.522995,13.019958l0.309006,0.122009c1.179001,0.450989 2.39299,0.665039 3.58699,0.665039c4.028,0 7.835007,-2.438049 9.359009,-6.415039c1.975998,-5.158997 -0.572998,-10.928986 -5.731003,-12.903992z" stroke-width="34" fill="#ffffff" id="svg_12"/>
   </g>
  </g>
  <g id="svg_13">
   <g id="svg_14">
    <path d="m376.824005,43.542999l-0.178009,-0.070999c-5.126984,-2.052002 -10.946991,0.443001 -12.998993,5.570999c-2.052002,5.128002 0.442993,10.945999 5.570984,12.998001l0.114014,0.046001c1.227997,0.495998 2.494995,0.73 3.743011,0.73c3.955994,0 7.701996,-2.363003 9.274994,-6.256001c2.069,-5.121002 -0.404999,-10.949001 -5.526001,-13.018002z" stroke-width="34" fill="#ffffff" id="svg_15"/>
   </g>
  </g>
  <g id="svg_16"/>
  <g id="svg_17"/>
  <g id="svg_18"/>
  <g id="svg_19"/>
  <g id="svg_20"/>
  <g id="svg_21"/>
  <g id="svg_22"/>
  <g id="svg_23"/>
  <g id="svg_24"/>
  <g id="svg_25"/>
  <g id="svg_26"/>
  <g id="svg_27"/>
  <g id="svg_28"/>
  <g id="svg_29"/>
  <g id="svg_30"/>
 </g>
</svg>