<svg width="750" height="750" xmlns="http://www.w3.org/2000/svg">

 <g>
  <title>background</title>
  <rect height="752" width="752" y="-1" x="-1" fill="none" id="canvas_background"/>
 </g>
 <g>
  <title>Layer 1</title>
  <ellipse ry="368.5" rx="374" cy="375" cx="375" stroke-width="null" stroke-opacity="null" stroke="null" fill="#03dac5" id="svg_3"/>
  <path d="m180,338c12.101593,0 23.054703,-4.85498 31.147995,-12.651978l44.403,22.198975c-0.222992,1.807983 -0.550995,3.585999 -0.550995,5.453003c0,24.812988 20.187988,45 45,45s45,-20.187012 45,-45c0,-6.925995 -1.703003,-13.410004 -4.511993,-19.276978l60.234985,-60.235016c5.867004,2.80899 12.351013,4.511993 19.277008,4.511993c24.812988,0 45,-20.187012 45,-45c0,-4.671997 -0.917999,-9.089996 -2.246002,-13.328003l52.335968,-39.242294c7.140015,4.769501 15.699036,7.570297 24.910034,7.570297c24.812988,0 45,-20.1875 45,-45s-20.187012,-45 -45,-45s-45,20.1875 -45,45c0,4.671906 0.917999,9.089798 2.246002,13.328094l-52.335999,39.242203c-7.140015,-4.769501 -15.699005,-7.570297 -24.910004,-7.570297c-24.812012,0 -45,20.188004 -45,45c0,6.925995 1.703003,13.410004 4.511993,19.276993l-60.234985,60.235001c-5.867004,-2.80899 -12.351013,-4.511993 -19.277008,-4.511993c-12.10199,0 -23.054993,4.85498 -31.14801,12.652008l-44.402985,-22.199005c0.222992,-1.807983 0.550995,-3.585999 0.550995,-5.453003c0,-24.812012 -20.186996,-45 -45,-45s-45,20.187988 -45,45s20.1875,45 45,45zm0,0" id="svg_1"/>
  <path d="m601,580l-16,0l0,-317c0,-8.289001 -6.710999,-15 -15,-15l-60,0c-8.289001,0 -15,6.710999 -15,15l0,317l-30,0l0,-227c0,-8.289001 -6.710999,-15 -15,-15l-60,0c-8.289001,0 -15,6.710999 -15,15l0,227l-30,0l0,-107c0,-8.289001 -6.710999,-15 -15,-15l-60,0c-8.289001,0 -15,6.710999 -15,15l0,107l-30,0l0,-167c0,-8.289001 -6.710999,-15 -15,-15l-60,0c-8.289093,0 -15,6.710999 -15,15l0,167l-16,0c-8.289063,0 -15,6.710999 -15,15s6.710938,15 15,15l482,0c8.289001,0 15,-6.710999 15,-15s-6.710999,-15 -15,-15zm0,0" id="svg_2"/>
 </g>
</svg>