<svg width="565" height="565" xmlns="http://www.w3.org/2000/svg">

 <g>
  <title>background</title>
  <rect height="567" width="567" y="-1" x="-1" fill="none" id="canvas_background"/>
 </g>
 <g>
  <title>Layer 1</title>
  <path d="m102.5,264c12.101563,0 23.054688,-4.855469 31.148438,-12.652344l44.402344,22.199219c-0.222656,1.808594 -0.550781,3.585938 -0.550781,5.453125c0,24.8125 20.1875,45 45,45s45,-20.1875 45,-45c0,-6.925781 -1.703125,-13.410156 -4.511719,-19.277344l60.234375,-60.234375c5.867188,2.808594 12.351563,4.511719 19.277344,4.511719c24.8125,0 45,-20.1875 45,-45c0,-4.671875 -0.917969,-9.089844 -2.246094,-13.328125l52.335938,-39.242188c7.140625,4.769531 15.699219,7.570313 24.910156,7.570313c24.8125,0 45,-20.1875 45,-45s-20.1875,-45 -45,-45s-45,20.1875 -45,45c0,4.671875 0.917969,9.089844 2.246094,13.328125l-52.335938,39.242188c-7.140625,-4.769531 -15.699219,-7.570313 -24.910156,-7.570313c-24.8125,0 -45,20.1875 -45,45c0,6.925781 1.703125,13.410156 4.511719,19.277344l-60.234375,60.234375c-5.867188,-2.808594 -12.351563,-4.511719 -19.277344,-4.511719c-12.101563,0 -23.054688,4.855469 -31.148438,12.652344l-44.402344,-22.199219c0.222656,-1.808594 0.550781,-3.585938 0.550781,-5.453125c0,-24.8125 -20.1875,-45 -45,-45s-45,20.1875 -45,45s20.1875,45 45,45zm0,0" id="svg_1"/>
  <path d="m523.5,506l-16,0l0,-317c0,-8.289063 -6.710938,-15 -15,-15l-60,0c-8.289063,0 -15,6.710938 -15,15l0,317l-30,0l0,-227c0,-8.289063 -6.710938,-15 -15,-15l-60,0c-8.289063,0 -15,6.710938 -15,15l0,227l-30,0l0,-107c0,-8.289063 -6.710938,-15 -15,-15l-60,0c-8.289063,0 -15,6.710938 -15,15l0,107l-30,0l0,-167c0,-8.289063 -6.710938,-15 -15,-15l-60,0c-8.289063,0 -15,6.710938 -15,15l0,167l-16,0c-8.289063,0 -15,6.710938 -15,15s6.710938,15 15,15l482,0c8.289063,0 15,-6.710938 15,-15s-6.710938,-15 -15,-15zm0,0" id="svg_2"/>
 </g>
</svg>