<svg id="Layer_5" enable-background="new 0 0 64 64" height="512" viewBox="0 0 64 64" width="512" xmlns="http://www.w3.org/2000/svg"><path d="m21 41.476v3.524h-6v-3.524h-2v16.524c0 2.757 2.243 5 5 5s5-2.243 5-5v-16.524zm-3 19.524c-1.654 0-3-1.346-3-3v-11h6v11c0 1.654-1.346 3-3 3z"/><path d="m30.05 29.05-.364-.364c-1.224 5.326-5.994 9.314-11.686 9.314-6.617 0-12-5.383-12-12s5.383-12 12-12c5.692 0 10.462 3.988 11.686 9.314l.364-.364c1.152-1.152 2.456-2.114 3.861-2.881-2.414-6.454-8.625-11.069-15.911-11.069-9.374 0-17 7.626-17 17s7.626 17 17 17c7.286 0 13.497-4.615 15.911-11.069-1.404-.766-2.709-1.729-3.861-2.881z" fill="#f0bc5e"/><path d="m61.293 49.293-2.293 2.293v-.586h-12v12h12v-8.586l3.707-3.707zm-4.293 11.707h-8v-8h8v.586l-4 4-2.293-2.293-1.414 1.414 3.707 3.707 4-4z"/><path d="m59 40.414 3.707-3.707-1.414-1.414-2.293 2.293v-.586h-12v12h12zm-10 6.586v-8h8v.586l-4 4-2.293-2.293-1.414 1.414 3.707 3.707 4-4v4.586z"/><path d="m31 52h14v9h-14z" fill="#f0bc5e"/><path d="m31 38h14v9h-14z" fill="#f0bc5e"/><path d="m31 51h14v2h-14z"/><path d="m31 55h14v2h-14z"/><path d="m31 59h10v2h-10z"/><path d="m43 59h2v2h-2z"/><path d="m31 37h14v2h-14z"/><path d="m31 41h14v2h-14z"/><path d="m31 45h10v2h-10z"/><path d="m43 45h2v2h-2z"/><path d="m56 23.586-1.343-1.343c-3.381-3.381-7.876-5.243-12.657-5.243-4.404 0-8.554 1.597-11.825 4.488-.712-1.94-1.845-3.642-3.294-4.999l9.08-8.113 5.039 5.038 9-9v5.586h2v-9h-9v2h5.586l-7.586 7.586-4.961-4.962-10.744 9.6c-2.09-1.414-4.605-2.224-7.295-2.224-7.168 0-13 5.832-13 13s5.832 13 13 13c5.528 0 10.316-3.42 12.175-8.488 3.271 2.891 7.421 4.488 11.825 4.488 4.781 0 9.276-1.862 12.657-5.243l1.343-1.343c.645-.646 1-1.503 1-2.414s-.355-1.769-1-2.414zm-7 2.414c0 3.859-3.14 7-7 7s-7-3.141-7-7 3.14-7 7-7 7 3.141 7 7zm-34 10.574c-.698-.198-1.366-.463-2-.788v-2.786h2zm8-.773c-.635.323-1.303.587-2 .782v-5.583h2zm2-1.307v-5.494h-6v7.954c-.33.029-.663.046-1 .046-.338 0-.67-.021-1-.051v-5.949h-6v3.479c-2.441-2.02-4-5.071-4-8.479 0-6.065 4.935-11 11-11 2.095 0 4.061.587 5.74 1.613l-3.47 3.1c-.646-.447-1.426-.713-2.27-.713-2.206 0-4 1.794-4 4s1.794 4 4 4 4-1.794 4-4c0-.637-.163-1.231-.429-1.766l3.806-3.401c1.496 1.355 2.618 3.13 3.193 5.182l-.57.571c-.645.646-1 1.503-1 2.414s.355 1.769 1 2.414l.57.57c-.622 2.222-1.886 4.12-3.57 5.51zm-5-11.494c0 1.103-.897 2-2 2s-2-.897-2-2 .897-2 2-2 2 .897 2 2zm9.415 4c-.268-.268-.415-.622-.415-1s.147-.732.414-1l1.343-1.343c1.17-1.17 2.493-2.128 3.92-2.87-1.051 1.473-1.677 3.269-1.677 5.213s.626 3.74 1.677 5.213c-1.427-.742-2.75-1.7-3.92-2.87zm25.171 0-1.343 1.343c-1.17 1.17-2.493 2.128-3.92 2.87 1.051-1.473 1.677-3.269 1.677-5.213s-.626-3.74-1.677-5.213c1.427.742 2.75 1.7 3.92 2.87l1.342 1.343c.268.268.415.622.415 1s-.147.732-.414 1z"/><path d="m42 31c2.757 0 5-2.243 5-5s-2.243-5-5-5-5 2.243-5 5 2.243 5 5 5zm0-8c1.654 0 3 1.346 3 3s-1.346 3-3 3-3-1.346-3-3 1.346-3 3-3z"/><circle cx="42" cy="26" r="1"/></svg>